<svg width="45.000000" height="45.000000" viewBox="0 0 45 45" fill="none" xmlns="http://www.w3.org/2000/svg" xmlns:xlink="http://www.w3.org/1999/xlink">
	<desc>
			Created with Pixso.
	</desc>
	<defs/>
	<rect id="Rectangle" x="0.500000" y="0.500000" width="44.000000" height="44.000000" stroke="#8DFD1B" stroke-opacity="1.000000" stroke-width="1.000000"/>
	<path id="3" d="M21.373 20.2969L23.4785 20.2969Q24.9824 20.2969 25.707 19.5449Q26.4316 18.793 26.4316 17.5488Q26.4316 16.3457 25.7139 15.6758Q24.9961 15.0059 23.7383 15.0059Q22.6035 15.0059 21.8379 15.6279Q21.0723 16.25 21.0723 17.248L17.1211 17.248Q17.1211 15.6895 17.9619 14.4521Q18.8027 13.2148 20.3135 12.5176Q21.8242 11.8203 23.6426 11.8203Q26.8008 11.8203 28.5918 13.3311Q30.3828 14.8418 30.3828 17.4941Q30.3828 18.8613 29.5488 20.0098Q28.7148 21.1582 27.3613 21.7734Q29.043 22.375 29.8701 23.5781Q30.6973 24.7812 30.6973 26.4219Q30.6973 29.0742 28.7627 30.6738Q26.8281 32.2734 23.6426 32.2734Q20.6621 32.2734 18.7686 30.7012Q16.875 29.1289 16.875 26.5449L20.8262 26.5449Q20.8262 27.666 21.667 28.377Q22.5078 29.0879 23.7383 29.0879Q25.1465 29.0879 25.9463 28.3428Q26.7461 27.5977 26.7461 26.3672Q26.7461 23.3867 23.4648 23.3867L21.373 23.3867L21.373 20.2969Z" fill="#8DFD1B" fill-opacity="1.000000" fill-rule="evenodd"/>
</svg>
