<svg width="45.000000" height="45.000000" viewBox="0 0 45 45" fill="none" xmlns="http://www.w3.org/2000/svg" xmlns:xlink="http://www.w3.org/1999/xlink">
	<desc>
			Created with Pixso.
	</desc>
	<defs/>
	<rect id="Rectangle" x="0.500000" y="0.500000" width="44.000000" height="44.000000" stroke="#8DFD1B" stroke-opacity="1.000000" stroke-width="1.000000"/>
	<path id="2" d="M30.998 31L17.3535 31L17.3535 28.293L23.793 21.4297Q25.1191 19.9805 25.7549 18.9004Q26.3906 17.8203 26.3906 16.8496Q26.3906 15.5234 25.7207 14.7646Q25.0508 14.0059 23.8066 14.0059Q22.4668 14.0059 21.6943 14.9287Q20.9219 15.8516 20.9219 17.3555L16.957 17.3555Q16.957 15.5371 17.8252 14.0332Q18.6934 12.5293 20.2793 11.6748Q21.8652 10.8203 23.875 10.8203Q26.9512 10.8203 28.6533 12.2969Q30.3555 13.7734 30.3555 16.4668Q30.3555 17.9434 29.5898 19.4746Q28.8242 21.0059 26.9648 23.043L22.4395 27.8145L30.998 27.8145L30.998 31Z" fill="#8DFD1B" fill-opacity="1.000000" fill-rule="evenodd"/>
</svg>
